<?xml version="1.0" encoding="utf-8"?>
<!-- Generator: Adobe Illustrator 26.3.1, SVG Export Plug-In . SVG Version: 6.00 Build 0)  -->
<svg version="1.1" id="圖層_1" xmlns="http://www.w3.org/2000/svg" xmlns:xlink="http://www.w3.org/1999/xlink" x="0px" y="0px"
	 viewBox="0 0 24 24" style="enable-background:new 0 0 24 24;" xml:space="preserve">
<style type="text/css">
	.st0{fill:url(#SVGID_1_);}
	.st1{fill:url(#SVGID_00000061474061200971427660000002400257201488350342_);}
	.st2{fill:url(#SVGID_00000137105038324243357610000018149554575975987375_);}
	.st3{fill:url(#SVGID_00000153683726722606377940000010915229527913192580_);}
	.st4{fill:url(#SVGID_00000023970773765258173630000015896821018041144201_);}
	.st5{fill:url(#SVGID_00000041266020373845833860000001498196687352821125_);}
</style>
<linearGradient id="SVGID_1_" gradientUnits="userSpaceOnUse" x1="6.138" y1="12.0219" x2="14.4669" y2="3.693">
	<stop  offset="4.860105e-02" style="stop-color:#02396B"/>
	<stop  offset="0.7227" style="stop-color:#0069CA"/>
</linearGradient>
<polygon class="st0" points="14.1,4.7 4.2,10.8 6.5,12 14.1,7.3 "/>
<linearGradient id="SVGID_00000121998073323392541540000014944336249949457044_" gradientUnits="userSpaceOnUse" x1="17.0721" y1="10.454" x2="18.9728" y2="7.1619">
	<stop  offset="0.3987" style="stop-color:#008FFE"/>
	<stop  offset="0.913" style="stop-color:#02DDFF"/>
</linearGradient>
<path style="fill:url(#SVGID_00000121998073323392541540000014944336249949457044_);" d="M14.1,4.7v2.6l6.5,4c0,0,0.8,0.5,1,1
	c0.2,0.5,0.2,1,0.2,1l0-3.2c0,0-0.2-0.9-1-1.4C20,8.2,14.1,4.7,14.1,4.7z"/>
<linearGradient id="SVGID_00000142161010780236431570000016276873543953891982_" gradientUnits="userSpaceOnUse" x1="-25.2887" y1="17.2208" x2="-16.9598" y2="8.8919" gradientTransform="matrix(-1 0 0 -1 -7.4267 29.1989)">
	<stop  offset="4.860105e-02" style="stop-color:#02396B"/>
	<stop  offset="0.7227" style="stop-color:#0069CA"/>
</linearGradient>
<polygon style="fill:url(#SVGID_00000142161010780236431570000016276873543953891982_);" points="9.9,19.3 19.8,13.2 17.5,12 
	9.9,16.7 "/>
<linearGradient id="SVGID_00000106142726879875481480000017095737464706450622_" gradientUnits="userSpaceOnUse" x1="-7.1153" y1="-2.9128" x2="-7.1153" y2="9.0921" gradientTransform="matrix(1 0 0 1 14.3249 7.5771)">
	<stop  offset="0" style="stop-color:#008FFE"/>
	<stop  offset="1" style="stop-color:#02DAFF"/>
</linearGradient>
<path style="fill:url(#SVGID_00000106142726879875481480000017095737464706450622_);" d="M9.9,4.7L3.4,8.6c0,0-1,0.7-1.1,1.8
	c-0.1,0.9,0.1,1.6,1.2,2.3c1.1,0.7,6.5,4,6.5,4l2.2-1.4l-6.8-4.1c0,0-0.3-0.2-0.3-0.6c0-0.3,0.4-0.6,0.4-0.6L12,6L9.9,4.7z"/>
<linearGradient id="SVGID_00000082347634403433804920000016530660690255458181_" gradientUnits="userSpaceOnUse" x1="-14.3546" y1="15.6529" x2="-12.4539" y2="12.3608" gradientTransform="matrix(-1 0 0 -1 -7.4267 29.1989)">
	<stop  offset="0.3987" style="stop-color:#008FFE"/>
	<stop  offset="0.913" style="stop-color:#02DDFF"/>
</linearGradient>
<path style="fill:url(#SVGID_00000082347634403433804920000016530660690255458181_);" d="M9.9,19.3v-2.6l-6.5-4c0,0-0.8-0.5-1-1
	c-0.2-0.5-0.2-1-0.2-1l0,3.2c0,0,0.2,0.9,1,1.4C4,15.8,9.9,19.3,9.9,19.3z"/>
<linearGradient id="SVGID_00000181062420407722202920000001725775657784449950_" gradientUnits="userSpaceOnUse" x1="-38.542" y1="2.2861" x2="-38.542" y2="14.291" gradientTransform="matrix(-1 0 0 -1 -21.7516 21.6219)">
	<stop  offset="0" style="stop-color:#008FFE"/>
	<stop  offset="1" style="stop-color:#02DAFF"/>
</linearGradient>
<path style="fill:url(#SVGID_00000181062420407722202920000001725775657784449950_);" d="M14.1,19.3l6.5-3.9c0,0,1-0.7,1.1-1.8
	c0.1-0.9-0.1-1.6-1.2-2.3c-1.1-0.7-6.5-4-6.5-4l-2.2,1.4l6.8,4.1c0,0,0.3,0.2,0.3,0.6c0,0.3-0.4,0.6-0.4,0.6L12,18L14.1,19.3z"/>
</svg>
