<?xml version="1.0" encoding="utf-8"?>
<!-- Generator: Adobe Illustrator 26.3.1, SVG Export Plug-In . SVG Version: 6.00 Build 0)  -->
<svg version="1.1" id="圖層_1" xmlns="http://www.w3.org/2000/svg" xmlns:xlink="http://www.w3.org/1999/xlink" x="0px" y="0px"
	 viewBox="0 0 120 120" style="enable-background:new 0 0 120 120;" xml:space="preserve">
<style type="text/css">
	.st0{fill:url(#SVGID_1_);}
	.st1{fill:url(#SVGID_00000142166561846285939390000011669465366223722122_);}
	.st2{fill:url(#SVGID_00000037666307688766568640000013134391570222036926_);}
	.st3{fill:url(#SVGID_00000016797344009651053900000000210069236777371789_);}
	.st4{fill:url(#SVGID_00000022555044866542446490000006546600276605184656_);}
	.st5{fill:url(#SVGID_00000132068129947438802500000002511205106839349124_);}
</style>
<linearGradient id="SVGID_1_" gradientUnits="userSpaceOnUse" x1="31.7556" y1="61.7972" x2="72.0238" y2="102.0654" gradientTransform="matrix(1 0 0 -1 0 122)">
	<stop  offset="4.860105e-02" style="stop-color:#02396B"/>
	<stop  offset="0.7227" style="stop-color:#0069CA"/>
</linearGradient>
<polygon class="st0" points="70.2,24.7 22.3,54.2 33.4,60 70.2,37.3 "/>
<linearGradient id="SVGID_00000013912894545274131500000008096490807189254528_" gradientUnits="userSpaceOnUse" x1="84.6617" y1="69.3941" x2="93.8511" y2="85.3106" gradientTransform="matrix(1 0 0 -1 0 122)">
	<stop  offset="0.3987" style="stop-color:#008FFE"/>
	<stop  offset="0.913" style="stop-color:#02DDFF"/>
</linearGradient>
<path style="fill:url(#SVGID_00000013912894545274131500000008096490807189254528_);" d="M70.2,24.7v12.6l31.4,19.3
	c0,0,3.9,2.4,4.8,4.8c1,2.4,1,4.8,1,4.8V50.8c0,0-1-4.4-4.8-6.8C98.7,41.6,70.2,24.7,70.2,24.7z"/>
<linearGradient id="SVGID_00000007406477646217347010000013844614576627243416_" gradientUnits="userSpaceOnUse" x1="-1894.1786" y1="1110.46" x2="-1853.9104" y2="1150.7281" gradientTransform="matrix(-1 0 0 1 -1805.4268 -1050.8011)">
	<stop  offset="4.860105e-02" style="stop-color:#02396B"/>
	<stop  offset="0.7227" style="stop-color:#0069CA"/>
</linearGradient>
<polygon style="fill:url(#SVGID_00000007406477646217347010000013844614576627243416_);" points="50.3,95.1 98.2,65.6 87,59.8 
	50.3,82.7 "/>
<linearGradient id="SVGID_00000135651939580518678920000011507766528677211570_" gradientUnits="userSpaceOnUse" x1="22.7087" y1="105.0434" x2="22.7087" y2="47.0264" gradientTransform="matrix(1 0 0 -1 14.3249 129.5771)">
	<stop  offset="0" style="stop-color:#008FFE"/>
	<stop  offset="1" style="stop-color:#02DAFF"/>
</linearGradient>
<path style="fill:url(#SVGID_00000135651939580518678920000011507766528677211570_);" d="M49.8,24.7L18.4,43.6c0,0-4.8,3.4-5.3,8.7
	c-0.5,4.4,0.5,7.7,5.8,11.1s31.4,19.3,31.4,19.3L61.1,76l-33-19.9c0,0-1.5-1-1.5-2.9c0-1.5,1.9-2.9,1.9-2.9L60,31L49.8,24.7z"/>
<linearGradient id="SVGID_00000060004067809609012470000012277323186443101840_" gradientUnits="userSpaceOnUse" x1="-1840.9508" y1="1118.9457" x2="-1832.2786" y2="1133.9666" gradientTransform="matrix(-1 0 0 1 -1805.4268 -1050.8011)">
	<stop  offset="0.3987" style="stop-color:#008FFE"/>
	<stop  offset="0.913" style="stop-color:#02DDFF"/>
</linearGradient>
<path style="fill:url(#SVGID_00000060004067809609012470000012277323186443101840_);" d="M50.3,95.1l0-12.4L18.9,63.2
	c0,0-3.9-2.4-4.8-4.8s-1-3.7-1-3.7L13.1,69c0,0,1,4.4,4.8,6.8C21.8,78.2,50.3,95.1,50.3,95.1z"/>
<linearGradient id="SVGID_00000065794882890228017720000016748427203661344918_" gradientUnits="userSpaceOnUse" x1="-1903.2611" y1="1153.6494" x2="-1903.2611" y2="1095.6324" gradientTransform="matrix(-1 0 0 1 -1819.7516 -1058.3781)">
	<stop  offset="0" style="stop-color:#008FFE"/>
	<stop  offset="1" style="stop-color:#02DAFF"/>
</linearGradient>
<path style="fill:url(#SVGID_00000065794882890228017720000016748427203661344918_);" d="M70.6,95.1l31.4-18.9c0,0,4.8-3.4,5.3-8.7
	c0.5-4.4-0.5-7.7-5.8-11.1C96.3,53,70.2,37.1,70.2,37.1l-10.6,6.8l32.9,19.8c0,0,1.5,1,1.5,2.9c0,1.5-1.9,2.9-1.9,2.9L60.5,88.8
	L70.6,95.1z"/>
</svg>
