<?xml version="1.0" encoding="utf-8"?>
<!-- Generator: Adobe Illustrator 26.3.1, SVG Export Plug-In . SVG Version: 6.00 Build 0)  -->
<svg version="1.1" id="圖層_1" xmlns="http://www.w3.org/2000/svg" xmlns:xlink="http://www.w3.org/1999/xlink" x="0px" y="0px"
	 viewBox="0 0 24 24" style="enable-background:new 0 0 24 24;" xml:space="preserve">
<style type="text/css">
	.st0{fill:url(#SVGID_1_);}
	.st1{fill:url(#SVGID_00000005951904229122039840000000252069539628947856_);}
	.st2{fill:url(#SVGID_00000018947227317607241710000000049395810263581837_);}
	.st3{fill:url(#SVGID_00000085243092312230806940000006431493289743548599_);}
	.st4{fill:url(#SVGID_00000049208098066391349960000004006777210164118714_);}
	.st5{fill:url(#SVGID_00000092431059898729057470000004409599863781281939_);}
</style>
<g>
	
		<linearGradient id="SVGID_1_" gradientUnits="userSpaceOnUse" x1="6.2708" y1="14.0347" x2="14.7147" y2="22.4785" gradientTransform="matrix(1 0 0 -1 0 26)">
		<stop  offset="4.860105e-02" style="stop-color:#02396B"/>
		<stop  offset="0.7227" style="stop-color:#0069CA"/>
	</linearGradient>
	<polygon class="st0" points="14.3,4.5 4.3,10.7 6.6,11.9 14.3,7.2 	"/>
	
		<linearGradient id="SVGID_00000015318681387570489040000005270706587044084141_" gradientUnits="userSpaceOnUse" x1="17.3647" y1="15.6277" x2="19.2917" y2="18.9652" gradientTransform="matrix(1 0 0 -1 0 26)">
		<stop  offset="0.3987" style="stop-color:#008FFE"/>
		<stop  offset="0.913" style="stop-color:#02DDFF"/>
	</linearGradient>
	<path style="fill:url(#SVGID_00000015318681387570489040000005270706587044084141_);" d="M14.3,4.5v2.6l6.6,4.1c0,0,0.8,0.5,1,1
		c0.2,0.5,0.2,1,0.2,1V10c0,0-0.2-0.9-1-1.4C20.3,8.1,14.3,4.5,14.3,4.5z"/>
	
		<linearGradient id="SVGID_00000141455204531001115290000012999129694022088108_" gradientUnits="userSpaceOnUse" x1="-1919.649" y1="1062.6523" x2="-1911.2052" y2="1071.0962" gradientTransform="matrix(-1 0 0 1 -1901.4268 -1050.8011)">
		<stop  offset="4.860105e-02" style="stop-color:#02396B"/>
		<stop  offset="0.7227" style="stop-color:#0069CA"/>
	</linearGradient>
	<polygon style="fill:url(#SVGID_00000141455204531001115290000012999129694022088108_);" points="10.2,19.3 20.2,13.1 17.9,11.9 
		10.2,16.7 	"/>
	
		<linearGradient id="SVGID_00000008114110026493038160000000403268031339834798_" gradientUnits="userSpaceOnUse" x1="-6.9473" y1="29.0913" x2="-6.9473" y2="16.9256" gradientTransform="matrix(1 0 0 -1 14.3249 33.5771)">
		<stop  offset="0" style="stop-color:#008FFE"/>
		<stop  offset="1" style="stop-color:#02DAFF"/>
	</linearGradient>
	<path style="fill:url(#SVGID_00000008114110026493038160000000403268031339834798_);" d="M10.1,4.5l-6.6,4c0,0-1,0.7-1.1,1.8
		c-0.1,0.9,0.1,1.6,1.2,2.3c1.1,0.7,6.6,4.1,6.6,4.1l2.3-1.4l-6.9-4.2c0,0-0.3-0.2-0.3-0.6c0-0.3,0.4-0.6,0.4-0.6l6.6-4.1L10.1,4.5z
		"/>
	
		<linearGradient id="SVGID_00000097487218884245327870000001048179772379834251_" gradientUnits="userSpaceOnUse" x1="-1908.4878" y1="1064.4318" x2="-1906.6693" y2="1067.5814" gradientTransform="matrix(-1 0 0 1 -1901.4268 -1050.8011)">
		<stop  offset="0.3987" style="stop-color:#008FFE"/>
		<stop  offset="0.913" style="stop-color:#02DDFF"/>
	</linearGradient>
	<path style="fill:url(#SVGID_00000097487218884245327870000001048179772379834251_);" d="M10.2,19.3l0-2.6l-6.6-4.1
		c0,0-0.8-0.5-1-1c-0.2-0.5-0.2-0.8-0.2-0.8l0,3c0,0,0.2,0.9,1,1.4C4.2,15.7,10.2,19.3,10.2,19.3z"/>
	
		<linearGradient id="SVGID_00000183963379637413029020000014047087957418942087_" gradientUnits="userSpaceOnUse" x1="-1932.8748" y1="1077.6969" x2="-1932.8748" y2="1065.5314" gradientTransform="matrix(-1 0 0 1 -1915.7516 -1058.3781)">
		<stop  offset="0" style="stop-color:#008FFE"/>
		<stop  offset="1" style="stop-color:#02DAFF"/>
	</linearGradient>
	<path style="fill:url(#SVGID_00000183963379637413029020000014047087957418942087_);" d="M14.4,19.3l6.6-4c0,0,1-0.7,1.1-1.8
		c0.1-0.9-0.1-1.6-1.2-2.3c-1.1-0.7-6.6-4.1-6.6-4.1l-2.2,1.4l6.9,4.2c0,0,0.3,0.2,0.3,0.6c0,0.3-0.4,0.6-0.4,0.6L12.3,18L14.4,19.3
		z"/>
</g>
</svg>
