<?xml version="1.0" encoding="utf-8"?>
<!-- Generator: Adobe Illustrator 26.3.1, SVG Export Plug-In . SVG Version: 6.00 Build 0)  -->
<svg version="1.1" id="圖層_1" xmlns="http://www.w3.org/2000/svg" xmlns:xlink="http://www.w3.org/1999/xlink" x="0px" y="0px"
	 viewBox="0 0 468.4 368.4" style="enable-background:new 0 0 468.4 368.4;" xml:space="preserve">
<style type="text/css">
	.st0{fill-rule:evenodd;clip-rule:evenodd;fill:#333333;}
</style>
<path class="st0" d="M451.9,244.4c0.8,0,1.5-0.7,1.5-1.5v-7.4c0-0.8-0.7-1.5-1.5-1.5h-4l-21-15.1c-0.5-0.4-1.2-0.4-1.8,0l-14.6,8.4
	v-48.1c0-0.8-0.7-1.5-1.5-1.5h-6.6v-9.3c0-0.8-0.7-1.5-1.5-1.5h-35.2c-0.8,0-1.5,0.7-1.5,1.5v9.3h-6.6c-0.8,0-1.5,0.7-1.5,1.5v24.6
	H346c-0.8,0-1.5,0.7-1.5,1.5v9.8h-37.1v-46.8l0,0c0-0.3-0.1-0.7-0.3-0.9l-13.4-16.5l-13.4-16.6c-0.1-0.1-0.2-0.2-0.2-0.2
	c-0.6-0.5-1.6-0.4-2.1,0.2l-13.4,16.6l-13.3,16.4l0,0c-0.3,0.3-0.4,0.6-0.4,1V198h-43.1c-0.1,0-0.2,0-0.2,0v-80.7
	c0-0.3-0.1-0.6-0.4-0.9c-0.6-0.5-1.5-0.5-2.1-0.1L171,151.5l0,0c-0.3,0.2-0.5,0.6-0.5,1V202h-36.9h-5.4c-0.8,0-1.5,0.7-1.5,1.5v9
	c0,0.8,0.7,1.5,1.5,1.5h3.9v2.4H78v-8.9c0-0.8-1-1.5-2.2-1.5h-6.6v-57.3c0-0.8-0.7-1.5-1.5-1.5h-5.1v-8.5c0-0.8-0.7-1.5-1.5-1.5
	h-4.8V132c0-0.8-0.7-1.5-1.5-1.5h-4.1V94.4c0-0.8-0.7-1.5-1.5-1.5H43c-0.8,0-1.5,0.7-1.5,1.5v36.1h-4.1c-0.8,0-1.5,0.7-1.5,1.5v5.2
	H31c-0.8,0-1.5,0.7-1.5,1.5v8.5h-5.1l0,0c-0.8,0-1.5,0.7-1.5,1.5v67.7H2.2c-1.2,0-2.2,0.7-2.2,1.5v60.4l0,0v90.1h468.4v-93.3h-18.6
	v-30.6L451.9,244.4L451.9,244.4z"/>
</svg>
