<?xml version="1.0" encoding="utf-8"?>
<!-- Generator: Adobe Illustrator 26.3.1, SVG Export Plug-In . SVG Version: 6.00 Build 0)  -->
<svg version="1.1" id="圖層_1" xmlns="http://www.w3.org/2000/svg" xmlns:xlink="http://www.w3.org/1999/xlink" x="0px" y="0px"
	 viewBox="0 0 368.4 368.4" style="enable-background:new 0 0 368.4 368.4;" xml:space="preserve">
<style type="text/css">
	.st0{fill:#222032;}
</style>
<path class="st0" d="M343.3,363.6l-7.3-69.8c0-0.5,0.3-0.9,0.8-0.9h1.2c0.4,0,0.8-0.4,0.8-0.8l-0.3-7.1c0-0.4-0.4-0.7-0.8-0.7h-3.9
	c-0.5,0-0.8-0.4-0.8-0.9l3.1-18.1c0.1-0.5-0.3-0.9-0.8-0.9h-1.7c-0.5,0-0.8-0.4-0.8-0.9l3.6-24.6c0.1-0.5-0.3-0.9-0.8-0.9h-2.3
	c-0.5,0-0.8-0.4-0.8-0.9l4.1-23.8c0.1-0.5-0.3-0.9-0.8-0.9h-2.3c-0.5,0-0.8-0.4-0.8-0.9l3.3-24c0.1-0.5-0.3-0.9-0.8-0.9h-1.9
	c-0.5,0-0.8-0.4-0.8-0.9l4.3-24.8c0.1-0.5-0.3-0.9-0.8-0.9h-3.3c-0.5,0-0.8-0.4-0.8-0.9l4-23.8c0.1-0.5-0.3-0.9-0.8-0.9h-2.3
	c-0.5,0-0.8-0.4-0.8-0.9l3.8-24.9c0.1-0.5-0.3-0.9-0.8-0.9h-2.1c-0.5,0-0.8-0.4-0.8-0.9l3.8-24c0.1-0.5-0.3-0.9-0.8-0.9h-9.9
	c-0.5,0-0.8-0.4-0.8-0.9l0.8-4.5c0.1-0.5-0.3-0.9-0.8-0.9h-2.5c-0.5,0-0.8-0.4-0.8-0.9l2.8-25.7c0.1-0.5-0.3-0.9-0.8-0.9h-3.7
	c-0.4,0-0.8-0.3-0.8-0.8V41c0-0.4-0.3-0.8-0.8-0.8l0,0c-0.5,0-0.9-0.5-0.7-1l1.2-4.5c0.1-0.5-0.2-1-0.7-1h-1.2
	c-0.4,0-0.8-0.3-0.8-0.8V3.4c0-0.4-0.3-0.8-0.8-0.8h-1.2h-1.2c-0.4,0-0.8,0.3-0.8,0.8V33c0,0.4-0.3,0.8-0.8,0.8h-1.2
	c-0.5,0-0.9,0.5-0.7,1l1.2,4.5c0.1,0.5-0.2,1-0.7,1h0c-0.4,0-0.8,0.3-0.8,0.8v6.3c0,0.4-0.3,0.8-0.8,0.8h-3.7
	c-0.5,0-0.8,0.4-0.8,0.9l2.8,25.7c0.1,0.5-0.3,0.9-0.8,0.9h-2.5c-0.5,0-0.8,0.4-0.8,0.9l0.8,4.5c0.1,0.5-0.3,0.9-0.8,0.9h-9.9
	c-0.5,0-0.8,0.4-0.8,0.9l3.8,24c0.1,0.5-0.3,0.9-0.8,0.9h-2.1c-0.5,0-0.8,0.4-0.8,0.9l3.8,24.9c0.1,0.5-0.3,0.9-0.8,0.9h-2.3
	c-0.5,0-0.8,0.4-0.8,0.9l4,23.8c0.1,0.5-0.3,0.9-0.8,0.9h-3.3c-0.5,0-0.8,0.4-0.8,0.9l4.3,24.8c0.1,0.5-0.3,0.9-0.8,0.9h-1.9
	c-0.5,0-0.8,0.4-0.8,0.9l3.3,24c0.1,0.5-0.3,0.9-0.8,0.9h-2.3c-0.5,0-0.8,0.4-0.8,0.9l4.1,23.8c0.1,0.5-0.3,0.9-0.8,0.9H293
	c-0.5,0-0.8,0.4-0.8,0.9l3.6,24.6c0.1,0.5-0.3,0.9-0.8,0.9h-1.7c-0.5,0-0.8,0.4-0.8,0.9l3.1,18.1c0.1,0.5-0.3,0.9-0.8,0.9h-3.9
	c-0.4,0-0.7,0.3-0.8,0.7l-0.3,7.1c0,0.4,0.3,0.8,0.8,0.8h1.2c0.5,0,0.8,0.4,0.8,0.9l-7.3,69.8c0,0.4-0.4,0.7-0.8,0.7h-2.1
	c-0.4,0-0.8,0.3-0.8,0.8v2.6c0,0.4,0.3,0.8,0.8,0.8h31.7h31.7c0.4,0,0.8-0.3,0.8-0.8V365c0-0.4-0.3-0.8-0.8-0.8H344
	C343.6,364.3,343.3,364,343.3,363.6z"/>
</svg>
