<svg xmlns="http://www.w3.org/2000/svg" width="18" height="18" viewBox="0 0 18 18">
    <g fill="none" fill-rule="evenodd">
        <g fill="#25aae1" fill-rule="nonzero">
            <g>
                <g>
                    <g>
                        <g>
                            <path d="M9 14c2.762 0 5-2.238 5-5s-2.238-5-5-5-5 2.238-5 5 2.238 5 5 5zm0-.968c-2.228 0-4.032-1.804-4.032-4.032 0-2.228 1.804-4.032 4.032-4.032 2.228 0 4.032 1.804 4.032 4.032 0 2.228-1.804 4.032-4.032 4.032zm1.597-1.98l.455-.455c.095-.095.095-.248 0-.343L9.798 9l1.254-1.254c.095-.095.095-.248 0-.343l-.455-.455c-.095-.095-.248-.095-.343 0L9 8.202 7.746 6.948c-.095-.095-.248-.095-.343 0l-.455.455c-.095.095-.095.248 0 .343L8.202 9l-1.254 1.254c-.095.095-.095.248 0 .343l.455.455c.095.095.248.095.343 0L9 9.798l1.254 1.254c.095.095.248.095.343 0z" transform="translate(-253 -565) translate(55 72) translate(20 455) translate(0 27) translate(178 11)"/>
                        </g>
                    </g>
                </g>
            </g>
        </g>
    </g>
</svg>
