<svg width="22" height="18" viewBox="0 0 22 18" fill="none" xmlns="http://www.w3.org/2000/svg">
<path d="M21.239 15.451L12.442 0.816C12.135 0.305 11.596 0 11 0C10.404 0 9.86501 0.305 9.55901 0.815L0.761007 15.451C0.449007 15.97 0.441006 16.619 0.739006 17.146C1.03601 17.673 1.59701 18 2.20301 18H19.798C20.403 18 20.965 17.673 21.262 17.146C21.56 16.619 21.551 15.97 21.239 15.451ZM11.5 15H10.5C10.224 15 10 14.776 10 14.5V13.5C10 13.224 10.224 13 10.5 13H11.5C11.776 13 12 13.224 12 13.5V14.5C12 14.776 11.776 15 11.5 15ZM11 11C10.448 11 10 10.552 10 10V7C10 6.448 10.448 6 11 6C11.552 6 12 6.448 12 7V10C12 10.552 11.552 11 11 11Z" fill="#d5355a"/>
</svg>
