<svg width="16" height="20" viewBox="0 0 16 20" fill="none" xmlns="http://www.w3.org/2000/svg">
<path d="M9.172 0H2C0.9 0 0 0.9 0 2V18C0 19.1 0.9 20 2 20H14C15.1 20 16 19.1 16 18V6.828C16 6.298 15.789 5.789 15.414 5.414L10.586 0.586C10.211 0.211 9.702 0 9.172 0ZM11 16H5C4.448 16 4 15.552 4 15C4 14.448 4.448 14 5 14H11C11.552 14 12 14.448 12 15C12 15.552 11.552 16 11 16ZM11 12H5C4.448 12 4 11.552 4 11C4 10.448 4.448 10 5 10H11C11.552 10 12 10.448 12 11C12 11.552 11.552 12 11 12ZM9 7V1.5L14.5 7H9Z" fill="#637381"/>
</svg>
