<svg width="16" height="20" viewBox="0 0 16 20" fill="none" xmlns="http://www.w3.org/2000/svg">
<path d="M8 0C4.67619 0 2 2.54875 2 5.71429V6.66667C0.9 6.66667 0 7.52381 0 8.57143V18.0952C0 19.1429 0.9 20 2 20H14C15.1 20 16 19.1429 16 18.0952V8.57143C16 7.52381 15.1 6.66667 14 6.66667V5.71429C14 2.54875 11.3238 0 8 0ZM8 1.90476C10.2762 1.90476 12 3.54649 12 5.71429V6.66667H4V5.71429C4 3.54649 5.72381 1.90476 8 1.90476ZM8 11.4286C9.1 11.4286 10 12.2857 10 13.3333C10 14.381 9.1 15.2381 8 15.2381C6.9 15.2381 6 14.381 6 13.3333C6 12.2857 6.9 11.4286 8 11.4286Z" fill="#637381"/>
</svg>
