<svg width="18" height="18" viewBox="0 0 18 18" fill="none" xmlns="http://www.w3.org/2000/svg">
<path d="M15.257 0.684997L11.969 2L6.664 0.231997C6.215 0.0819968 5.728 0.0969968 5.289 0.271997L1.257 1.885C0.498 2.189 0 2.924 0 3.742V15.587C0 17.002 1.429 17.969 2.743 17.444L6.032 16.129L11.337 17.897C11.786 18.047 12.273 18.032 12.712 17.857L16.743 16.244C17.502 15.94 18 15.205 18 14.387V2.542C18 1.127 16.571 0.158997 15.257 0.684997ZM12 14.605C12 15.286 11.334 15.768 10.687 15.555L6.687 14.237C6.277 14.102 6 13.719 6 13.287V3.524C6 2.843 6.666 2.361 7.313 2.574L11.313 3.892C11.723 4.027 12 4.41 12 4.842V14.605Z" fill="#fff"/>
</svg>
