<svg width="20" height="20" viewBox="0 0 20 20" fill="none" xmlns="http://www.w3.org/2000/svg">
<path fill-rule="evenodd" clip-rule="evenodd" d="M14.4851 16.2097C12.969 17.3637 11.0767 18.0488 9.02438 18.0488C4.04035 18.0488 0 14.0084 0 9.02438C0 4.04035 4.04035 0 9.02438 0C14.0084 0 18.0488 4.04035 18.0488 9.02438C18.0488 11.0767 17.3637 12.969 16.2097 14.4851L19.6428 17.9181C20.1191 18.3944 20.1191 19.1665 19.6428 19.6428C19.1666 20.119 18.3944 20.119 17.9182 19.6428L14.4851 16.2097ZM2.43902 9.02438C2.43902 5.38739 5.38739 2.43902 9.02438 2.43902C12.6614 2.43902 15.6097 5.38739 15.6097 9.02438C15.6097 10.7925 14.9129 12.3978 13.7789 13.5808C13.7427 13.6096 13.7078 13.6407 13.6743 13.6742C13.6408 13.7077 13.6096 13.7427 13.5808 13.7789C12.3979 14.9129 10.7925 15.6097 9.02438 15.6097C5.38739 15.6097 2.43902 12.6614 2.43902 9.02438Z" fill="#637381"/>
</svg>
