<svg width="16" height="20" viewBox="0 0 16 20" fill="none" xmlns="http://www.w3.org/2000/svg">
<path d="M8 0C5.54254 0 3.43022 1.43253 2.5 3.4747C2.44204 3.59022 2.40914 3.71568 2.40324 3.84358C2.39735 3.97149 2.41859 4.09921 2.4657 4.21912C2.5128 4.33903 2.58481 4.44866 2.67741 4.54147C2.77001 4.63427 2.88131 4.70835 3.00465 4.75926C3.12799 4.81018 3.26084 4.83689 3.39527 4.8378C3.52969 4.83871 3.66293 4.8138 3.78702 4.76456C3.91111 4.71532 4.0235 4.64276 4.11748 4.55122C4.21145 4.45968 4.28509 4.35103 4.33398 4.23177C4.96376 2.84918 6.35346 1.90476 8 1.90476C10.2762 1.90476 12 3.54649 12 5.71429V6.66667H2C0.9 6.66667 0 7.52381 0 8.57143V18.0952C0 19.1429 0.9 20 2 20H14C15.1 20 16 19.1429 16 18.0952V8.57143C16 7.52381 15.1 6.66667 14 6.66667V5.71429C14 2.54875 11.3238 0 8 0ZM8 11.4286C9.1 11.4286 10 12.2857 10 13.3333C10 14.381 9.1 15.2381 8 15.2381C6.9 15.2381 6 14.381 6 13.3333C6 12.2857 6.9 11.4286 8 11.4286Z" fill="#637381"/>
</svg>
