<svg width="22" height="22" viewBox="0 0 22 22" fill="none" xmlns="http://www.w3.org/2000/svg">
<path d="M11 0C4.9247 0 0 4.9247 0 11C0 17.0753 4.9247 22 11 22C17.0753 22 22 17.0753 22 11C22 4.9247 17.0753 0 11 0ZM11 3.025C12.9745 3.025 14.575 4.6255 14.575 6.6C14.575 8.5745 12.9745 10.175 11 10.175C9.0255 10.175 7.425 8.5745 7.425 6.6C7.425 4.6255 9.0255 3.025 11 3.025ZM11 19.8C8.3182 19.8 5.9169 18.5999 4.3032 16.7068C3.8841 16.2151 3.9776 15.477 4.4935 15.0887C6.1622 13.8336 9.2026 13.2 11 13.2C12.7974 13.2 15.8378 13.8336 17.5076 15.0887C18.0235 15.477 18.117 16.2162 17.6979 16.7068C16.0831 18.5999 13.6818 19.8 11 19.8Z" fill="#637381"/>
</svg>
