<svg width="20" height="16" viewBox="0 0 20 16" fill="none" xmlns="http://www.w3.org/2000/svg">
<path d="M8.15203 0C7.80023 0 7.44804 0.134407 7.17993 0.398701L0.403188 7.04531C-0.134396 7.57389 -0.134396 8.42972 0.403188 8.95696L7.17993 15.6036C7.71752 16.1321 8.58791 16.1321 9.12412 15.6036L9.24227 15.4874C9.77986 14.9588 9.77986 14.103 9.24227 13.5757L4.93067 9.35302H18.6251C19.384 9.35302 20 8.74737 20 8.00113C20 7.25489 19.384 6.64924 18.6251 6.64924H4.93067L9.24227 2.42653C9.77986 1.89794 9.77986 1.04211 9.24227 0.514879L9.12412 0.398701C8.85533 0.134407 8.50383 0 8.15203 0Z" fill="#637381"/>
</svg>
