<svg width="20" height="16" viewBox="0 0 20 16" fill="none" xmlns="http://www.w3.org/2000/svg">
<path d="M11.848 16C12.1998 16 12.552 15.8656 12.8201 15.6013L19.5968 8.95469C20.1344 8.42611 20.1344 7.57028 19.5968 7.04304L12.8201 0.396441C12.2825 -0.132147 11.4121 -0.132147 10.8759 0.396441L10.7577 0.512619C10.2201 1.04121 10.2201 1.89703 10.7577 2.42427L15.0693 6.64698H1.3749C0.615953 6.64698 0 7.25263 0 7.99887C0 8.74511 0.615953 9.35076 1.3749 9.35076H15.0693L10.7577 13.5735C10.2201 14.1021 10.2201 14.9579 10.7577 15.4851L10.8759 15.6013C11.1447 15.8656 11.4962 16 11.848 16Z" fill="#637381"/>
</svg>
