<svg width="16" height="20" viewBox="0 0 16 20" fill="none" xmlns="http://www.w3.org/2000/svg">
<path d="M0 11.848C0 12.1998 0.134407 12.552 0.398701 12.8201L7.04531 19.5968C7.57389 20.1344 8.42972 20.1344 8.95696 19.5968L15.6036 12.8201C16.1321 12.2825 16.1321 11.4121 15.6036 10.8759L15.4874 10.7577C14.9588 10.2201 14.103 10.2201 13.5757 10.7577L9.35302 15.0693L9.35302 1.37489C9.35302 0.615952 8.74737 -1.90735e-06 8.00113 -1.90735e-06C7.25489 -1.90735e-06 6.64924 0.615952 6.64924 1.37489L6.64924 15.0693L2.42653 10.7577C1.89794 10.2201 1.04212 10.2201 0.514879 10.7577L0.398701 10.8759C0.134407 11.1447 0 11.4962 0 11.848Z" fill="#637381"/>
</svg>
