<svg width="16" height="20" viewBox="0 0 16 20" fill="none" xmlns="http://www.w3.org/2000/svg">
<path d="M16 8.15203C16 7.80023 15.8656 7.44804 15.6013 7.17993L8.95469 0.403188C8.42611 -0.134396 7.57028 -0.134396 7.04304 0.403188L0.396441 7.17993C-0.132147 7.71752 -0.132147 8.58791 0.396441 9.12412L0.512619 9.24227C1.04121 9.77986 1.89703 9.77986 2.42427 9.24227L6.64698 4.93067V18.6251C6.64698 19.384 7.25263 20 7.99887 20C8.74511 20 9.35076 19.384 9.35076 18.6251V4.93067L13.5735 9.24227C14.1021 9.77986 14.9579 9.77986 15.4851 9.24227L15.6013 9.12412C15.8656 8.85533 16 8.50383 16 8.15203Z" fill="#637381"/>
</svg>
